<?xml version="1.0" standalone="no"?>
<!DOCTYPE svg PUBLIC "-//W3C//DTD SVG 20010904//EN"
 "http://www.w3.org/TR/2001/REC-SVG-20010904/DTD/svg10.dtd">
<svg version="1.0" xmlns="http://www.w3.org/2000/svg"
 width="70.000000pt" height="70.000000pt" viewBox="0 0 70.000000 70.000000"
 preserveAspectRatio="xMidYMid meet">
<metadata>
Created by potrace 1.14, written by Peter Selinger 2001-2017
</metadata>
<g transform="translate(0.000000,70.000000) scale(0.100000,-0.100000)"
fill="#000000" stroke="none">
<path d="M306 685 c-11 -8 -16 -15 -12 -15 5 0 4 -6 -2 -12 -10 -14 -7 -58 6
-68 4 -3 13 -15 20 -28 12 -21 11 -24 -10 -30 -13 -3 -24 -5 -26 -3 -1 1 -10
-6 -19 -14 -23 -24 -42 -1 -48 59 -3 37 -11 54 -32 72 -16 13 -30 19 -32 13
-2 -6 -8 -4 -15 5 -10 14 -16 13 -53 -6 -23 -12 -40 -25 -37 -29 2 -4 -3 -15
-12 -23 -8 -9 -11 -16 -6 -16 5 0 7 -10 5 -22 -2 -15 6 -34 22 -52 21 -25 34
-30 72 -31 51 -1 72 -19 58 -51 -4 -11 -8 -22 -7 -26 1 -4 -6 -11 -16 -16 -19
-10 -62 -2 -65 12 -3 13 -45 17 -53 5 -3 -5 -10 -7 -15 -4 -5 4 -9 -1 -9 -10
0 -9 -4 -13 -10 -10 -17 10 -11 -52 6 -69 8 -9 12 -16 7 -17 -4 -1 8 -5 27 -9
27 -7 37 -5 48 8 7 10 11 12 8 5 -5 -8 0 -8 18 0 13 7 22 15 20 19 -3 4 2 5
10 2 9 -3 16 -13 16 -20 0 -8 7 -25 16 -39 15 -22 14 -24 -17 -47 -17 -13 -35
-22 -40 -21 -5 2 -13 -6 -19 -17 -6 -11 -8 -20 -4 -20 3 0 2 -6 -3 -12 -12
-15 23 -53 47 -53 30 0 59 25 55 45 -2 11 0 18 6 15 5 -4 9 3 9 13 0 27 23 34
49 16 11 -8 21 -12 21 -8 0 3 6 1 14 -6 8 -6 12 -19 9 -27 -5 -12 -2 -14 8 -9
8 4 3 -1 -10 -12 -27 -22 -37 -80 -14 -89 7 -3 13 -11 13 -17 0 -19 69 -18 87
0 19 19 25 71 9 87 -13 15 -21 67 -9 68 28 2 47 9 53 19 9 14 34 -34 36 -69 2
-39 15 -71 29 -71 7 0 15 -4 17 -10 5 -16 66 -19 86 -4 11 7 23 10 27 6 5 -4
5 -1 1 6 -4 6 -2 12 4 12 6 0 9 4 6 9 -3 5 1 14 9 21 15 13 16 35 1 59 -7 10
-5 12 5 7 8 -4 6 -1 -3 7 -10 8 -18 20 -18 26 0 7 -4 9 -10 6 -5 -3 -10 0 -10
8 0 9 -12 13 -42 13 -48 -1 -86 23 -72 45 9 14 10 19 13 39 2 15 43 12 64 -4
22 -17 72 -13 92 8 24 24 19 83 -7 98 -28 15 -67 18 -74 6 -3 -4 -10 -6 -15
-3 -5 4 -12 0 -15 -8 -10 -28 -50 -5 -45 26 0 4 -3 7 -8 7 -6 0 -8 9 -6 20 6
29 15 41 26 35 5 -4 9 -2 9 4 0 5 9 12 19 16 27 8 33 62 9 80 -22 15 -72 6
-74 -13 -1 -7 -2 -20 -3 -29 -1 -16 -3 -16 -11 -3 -9 13 -10 13 -11 0 -1 -8
-1 -17 -1 -20 0 -4 -10 -6 -24 -6 -13 0 -24 4 -24 8 0 4 -3 7 -7 7 -35 -6 -45
30 -18 65 18 24 11 76 -12 94 -22 16 -63 15 -87 -3z"/>
</g>
</svg>
